<mxfile host="app.diagrams.net" modified="2023-09-02T07:21:31.267Z" agent="Mozilla/5.0 (Macintosh; Intel Mac OS X 10_15_7) AppleWebKit/537.36 (KHTML, like Gecko) Chrome/116.0.0.0 Safari/537.36 Edg/116.0.1938.62" etag="3sovF3mH1V778yU0q97m" version="21.7.2" type="device">
  <diagram name="第 1 页" id="1W9293r0rU56vctnEbSh">
    <mxGraphModel dx="954" dy="648" grid="1" gridSize="10" guides="1" tooltips="1" connect="1" arrows="1" fold="1" page="1" pageScale="1" pageWidth="827" pageHeight="1169" math="0" shadow="0">
      <root>
        <mxCell id="0" />
        <mxCell id="1" parent="0" />
        <mxCell id="EKEh8XiQLaTu0fDqE1CA-1" value="" style="endArrow=none;html=1;edgeStyle=orthogonalEdgeStyle;entryX=1;entryY=0.5;entryDx=0;entryDy=0;" diagramCategory="uml" diagramName="Association1" edge="1" parent="1">
          <mxGeometry relative="1" as="geometry">
            <mxPoint x="394" y="170" as="sourcePoint" />
            <mxPoint x="314" y="261" as="targetPoint" />
            <Array as="points">
              <mxPoint x="394" y="180" />
              <mxPoint x="394" y="265" />
            </Array>
          </mxGeometry>
        </mxCell>
        <mxCell id="EKEh8XiQLaTu0fDqE1CA-2" value="" style="resizable=0;html=1;align=left;verticalAlign=bottom;labelBackgroundColor=#ffffff;fontSize=10;" connectable="0" vertex="1" parent="EKEh8XiQLaTu0fDqE1CA-1">
          <mxGeometry x="-1" relative="1" as="geometry" />
        </mxCell>
        <mxCell id="EKEh8XiQLaTu0fDqE1CA-3" value="child" style="resizable=0;html=1;align=right;verticalAlign=bottom;labelBackgroundColor=#ffffff;fontSize=10;" connectable="0" vertex="1" parent="EKEh8XiQLaTu0fDqE1CA-1">
          <mxGeometry x="1" relative="1" as="geometry">
            <mxPoint x="30.09" y="-1" as="offset" />
          </mxGeometry>
        </mxCell>
        <mxCell id="EKEh8XiQLaTu0fDqE1CA-4" value="" style="endArrow=none;html=1;edgeStyle=orthogonalEdgeStyle;entryX=0.002;entryY=0.134;entryDx=0;entryDy=0;entryPerimeter=0;" diagramCategory="uml" diagramName="Association1" edge="1" parent="1" target="EKEh8XiQLaTu0fDqE1CA-10">
          <mxGeometry relative="1" as="geometry">
            <mxPoint x="394" y="170" as="sourcePoint" />
            <mxPoint x="494" y="255" as="targetPoint" />
            <Array as="points">
              <mxPoint x="394" y="261" />
              <mxPoint x="495" y="261" />
            </Array>
          </mxGeometry>
        </mxCell>
        <mxCell id="EKEh8XiQLaTu0fDqE1CA-5" value="parent" style="resizable=0;html=1;align=left;verticalAlign=bottom;labelBackgroundColor=#ffffff;fontSize=10;" connectable="0" vertex="1" parent="EKEh8XiQLaTu0fDqE1CA-4">
          <mxGeometry x="-1" relative="1" as="geometry">
            <mxPoint y="20" as="offset" />
          </mxGeometry>
        </mxCell>
        <mxCell id="EKEh8XiQLaTu0fDqE1CA-6" value="child" style="resizable=0;html=1;align=right;verticalAlign=bottom;labelBackgroundColor=#ffffff;fontSize=10;" connectable="0" vertex="1" parent="EKEh8XiQLaTu0fDqE1CA-4">
          <mxGeometry x="1" relative="1" as="geometry">
            <mxPoint x="-9.9" y="-1" as="offset" />
          </mxGeometry>
        </mxCell>
        <mxCell id="EKEh8XiQLaTu0fDqE1CA-7" value="NormalScheduler" style="swimlane;fontStyle=0;childLayout=stackLayout;horizontal=1;startSize=26;fillColor=none;horizontalStack=0;resizeParent=1;resizeParentMax=0;resizeLast=0;collapsible=1;marginBottom=0;" diagramCategory="uml" diagramName="Class2" vertex="1" parent="1">
          <mxGeometry x="30" y="251" width="284" height="78" as="geometry" />
        </mxCell>
        <mxCell id="EKEh8XiQLaTu0fDqE1CA-8" value="+ sender: channel::Sender&lt;FsmTypes&lt;N, C&gt;&gt;" style="text;strokeColor=none;fillColor=none;align=left;verticalAlign=top;spacingLeft=4;spacingRight=4;overflow=hidden;rotatable=0;points=[[0,0.5],[1,0.5]];portConstraint=eastwest;" vertex="1" parent="EKEh8XiQLaTu0fDqE1CA-7">
          <mxGeometry y="26" width="284" height="26" as="geometry" />
        </mxCell>
        <mxCell id="EKEh8XiQLaTu0fDqE1CA-9" value="+ low_sender: channel::Sender&lt;FsmTypes&lt;N, C&gt;&gt;," style="text;strokeColor=none;fillColor=none;align=left;verticalAlign=top;spacingLeft=4;spacingRight=4;overflow=hidden;rotatable=0;points=[[0,0.5],[1,0.5]];portConstraint=eastwest;" vertex="1" parent="EKEh8XiQLaTu0fDqE1CA-7">
          <mxGeometry y="52" width="284" height="26" as="geometry" />
        </mxCell>
        <mxCell id="EKEh8XiQLaTu0fDqE1CA-10" value="ControlScheduler" style="swimlane;fontStyle=0;childLayout=stackLayout;horizontal=1;startSize=26;fillColor=none;horizontalStack=0;resizeParent=1;resizeParentMax=0;resizeLast=0;collapsible=1;marginBottom=0;" diagramCategory="uml" diagramName="Class2" vertex="1" parent="1">
          <mxGeometry x="494" y="250" width="284" height="78" as="geometry" />
        </mxCell>
        <mxCell id="EKEh8XiQLaTu0fDqE1CA-11" value="+ sender: channel::Sender&lt;FsmTypes&lt;N, C&gt;&gt;" style="text;strokeColor=none;fillColor=none;align=left;verticalAlign=top;spacingLeft=4;spacingRight=4;overflow=hidden;rotatable=0;points=[[0,0.5],[1,0.5]];portConstraint=eastwest;" vertex="1" parent="EKEh8XiQLaTu0fDqE1CA-10">
          <mxGeometry y="26" width="284" height="26" as="geometry" />
        </mxCell>
        <mxCell id="EKEh8XiQLaTu0fDqE1CA-12" value="+ low_sender: channel::Sender&lt;FsmTypes&lt;N, C&gt;&gt;," style="text;strokeColor=none;fillColor=none;align=left;verticalAlign=top;spacingLeft=4;spacingRight=4;overflow=hidden;rotatable=0;points=[[0,0.5],[1,0.5]];portConstraint=eastwest;" vertex="1" parent="EKEh8XiQLaTu0fDqE1CA-10">
          <mxGeometry y="52" width="284" height="26" as="geometry" />
        </mxCell>
        <mxCell id="EKEh8XiQLaTu0fDqE1CA-13" value="trait FsmScheduler" style="swimlane;fontStyle=1;align=center;verticalAlign=top;childLayout=stackLayout;horizontal=1;startSize=26;horizontalStack=0;resizeParent=1;resizeParentMax=0;resizeLast=0;collapsible=1;marginBottom=0;" diagramCategory="uml" diagramName="Class" vertex="1" parent="1">
          <mxGeometry x="270" y="90" width="250" height="78" as="geometry" />
        </mxCell>
        <mxCell id="EKEh8XiQLaTu0fDqE1CA-14" value="+ fn schedule(&amp;self, fsm: Box&lt;Self::Fsm&gt;);" style="text;strokeColor=none;fillColor=none;align=left;verticalAlign=top;spacingLeft=4;spacingRight=4;overflow=hidden;rotatable=0;points=[[0,0.5],[1,0.5]];portConstraint=eastwest;" vertex="1" parent="EKEh8XiQLaTu0fDqE1CA-13">
          <mxGeometry y="26" width="250" height="26" as="geometry" />
        </mxCell>
        <mxCell id="EKEh8XiQLaTu0fDqE1CA-15" value="+ fn shutdown(&amp;self);" style="text;strokeColor=none;fillColor=none;align=left;verticalAlign=top;spacingLeft=4;spacingRight=4;overflow=hidden;rotatable=0;points=[[0,0.5],[1,0.5]];portConstraint=eastwest;" vertex="1" parent="EKEh8XiQLaTu0fDqE1CA-13">
          <mxGeometry y="52" width="250" height="26" as="geometry" />
        </mxCell>
        <mxCell id="EKEh8XiQLaTu0fDqE1CA-16" value="" style="rounded=1;whiteSpace=wrap;html=1;fillColor=none;dashed=1;" vertex="1" parent="1">
          <mxGeometry x="10" y="70" width="800" height="330" as="geometry" />
        </mxCell>
      </root>
    </mxGraphModel>
  </diagram>
</mxfile>
